<svg width="406" height="145" viewBox="0 0 406 145" fill="none" xmlns="http://www.w3.org/2000/svg">
<path d="M195.398 46.6444H130.926C130.399 46.6444 130.136 47.2375 130.531 47.5637L191.971 94.916C195.751 97.8289 193.691 103.876 188.919 103.876H164.216C148.345 103.876 135.503 115.471 135.503 129.734V140.006C135.503 142.767 137.742 145.006 140.503 145.006H241.233C257.368 145.006 270.44 133.233 270.44 118.703V108.235C270.44 105.448 269.156 102.809 266.851 100.941L195.457 46.6644C195.44 46.6514 195.42 46.6444 195.398 46.6444Z" fill="#FF7145"/>
<path d="M42.8651 0.00980544C42.8651 0.0179807 42.8717 0.0246081 42.8799 0.0246081H400.32C403.081 0.0246081 405.32 2.26319 405.32 5.02461V12.2194C405.32 28.4101 390.704 41.5817 372.666 41.5817H6.61868C4.00314 41.5817 1.88281 39.4614 1.88281 36.8458C1.88281 16.5157 20.2427 0.0022524 42.8502 -0.00499487C42.8584 -0.00499749 42.8651 0.00163014 42.8651 0.00980544Z" fill="#FF7145"/>
<path d="M69.1393 47.3677H4.69419C4.16757 47.3677 3.90426 47.9621 4.29922 48.2891L62.6201 98.5077C64.7282 100.323 63.4445 103.781 60.6626 103.781H29.3795C13.5151 103.781 0.678711 115.402 0.678711 129.699V142.006C0.678711 143.663 2.02186 145.006 3.67871 145.006H106.365C122.492 145.006 135.559 133.206 135.559 118.642V108.15C135.559 105.356 134.276 102.711 131.972 100.838L69.1972 47.389C69.1811 47.3753 69.1605 47.3677 69.1393 47.3677Z" fill="#FF7145"/>
<path d="M405.321 48.8439C405.321 48.8275 405.307 48.8142 405.291 48.8142H310.463C289.029 48.8142 271.645 64.4948 271.645 83.8282V140.006C271.645 142.767 273.883 145.006 276.645 145.006H312.048C314.81 145.006 317.048 142.767 317.048 140.006V90.6884C317.048 87.6592 319.748 85.224 323.107 85.224H384.084C395.805 85.224 405.321 76.6412 405.321 66.0687V48.8439Z" fill="#FF7145"/>
</svg>
