<svg width="56" height="22" viewBox="0 0 56 22" fill="none" xmlns="http://www.w3.org/2000/svg">
<path d="M26.61 7.07732H17.7988C17.7267 7.07732 17.6907 7.1673 17.7448 7.21679L27.7306 15.7601H22.3484C20.1793 15.7601 18.4243 17.5191 18.4243 19.6831V22H32.8742C35.0793 22 36.8659 20.214 36.8659 18.0095V16.4214C36.8659 15.9985 36.6903 15.5981 36.3753 15.3147L26.6145 7.07732H26.61Z" fill="white"/>
<path d="M5.76309 0.0044915H55.2992V1.85459C55.2992 4.31092 53.3017 6.30922 50.8364 6.30922H0.162109V5.59073C0.162109 2.50572 2.67243 0 5.76309 0V0.0044915Z" fill="white"/>
<path d="M9.35638 7.18703H0.548788C0.476816 7.18703 0.44083 7.27721 0.494809 7.32681L9.30241 15.7456H3.92248C1.75432 15.7456 0 17.5087 0 19.6777V22H14.4439C16.6481 22 18.4339 20.2098 18.4339 18.0003V16.4085C18.4339 15.9846 18.2584 15.5833 17.9436 15.2992L9.36088 7.18703H9.35638Z" fill="white"/>
<path d="M55.3015 7.40642H42.3375C39.4081 7.40642 37.0322 9.78536 37.0322 12.7185V21.9999H43.2375V13.7593C43.2375 13.2997 43.6065 12.9302 44.0655 12.9302H52.3991C54.0011 12.9302 55.3015 11.6281 55.3015 10.0241V7.41093V7.40642Z" fill="white"/>
</svg>
