<svg width="222" height="33" viewBox="0 0 222 33" fill="none" xmlns="http://www.w3.org/2000/svg">
<path d="M12.458 16.4445C12.458 16.4445 4.30142 17.4641 4.38652 12.9262C4.48664 7.57274 10.2791 3.42818 14.8315 2.28613C14.8315 2.28613 9.72057 3.22622 6.25726 5.53423C2.79396 7.84224 0 11.058 0 13.779C0 16.5001 2.82256 17.8188 4.10691 18.0383C5.39126 18.2578 8.07294 18.3958 12.458 16.4445Z" fill="#121217"/>
<path d="M0.764648 31.2862C0.764648 31.2862 7.83142 28.7833 13.4444 23.783C19.0573 18.7828 20.062 11.0721 8.51007 13.2837C8.51007 13.2837 13.2356 11.355 16.6481 11.355C20.0606 11.355 23.9973 11.9883 23.9973 15.8809C24.0002 21.1718 13.8019 30.731 0.764648 31.2862Z" fill="#121217"/>
<path d="M21.4745 4.40484C22.2275 5.68832 21.6332 7.41299 20.1472 8.25668C18.6612 9.10037 16.8469 8.74502 16.0939 7.46154C15.3409 6.17807 15.9623 4.49913 17.4205 3.6097C18.6891 2.83567 20.7214 3.12136 21.4745 4.40484Z" fill="#121217"/>
<path d="M55.6377 13.5869H50.6221V11.1611H55.6377V13.5869ZM47.0127 10.2471C47.0127 11.7314 46.7939 13.1025 46.3564 14.3604C45.9189 15.6104 45.2588 16.7041 44.376 17.6416C43.501 18.5713 42.4111 19.2744 41.1064 19.751L39.4893 17.3838C40.6377 17.001 41.5908 16.4463 42.3486 15.7197C43.1143 14.9932 43.6807 14.165 44.0479 13.2354C44.415 12.3057 44.5986 11.3096 44.5986 10.2471V7.92676H47.0127V10.2471ZM47.6104 10.2705C47.6104 11.2314 47.7861 12.1455 48.1377 13.0127C48.4893 13.8721 49.0283 14.6455 49.7549 15.333C50.4893 16.0127 51.4033 16.54 52.4971 16.915L50.8682 19.2354C49.6338 18.7666 48.5947 18.0908 47.751 17.208C46.915 16.3174 46.2861 15.2822 45.8643 14.1025C45.4424 12.9229 45.2314 11.6455 45.2314 10.2705V7.92676H47.6104V10.2705ZM57.6064 22.3877H54.6299V6.6377H57.6064V22.3877ZM58.0635 27.5791H43.4033V25.165H58.0635V27.5791ZM46.4268 26.4775H43.4033V20.7354H46.4268V26.4775ZM77.6443 22.3291H74.6794V6.6377H77.6443V22.3291ZM78.2185 27.5791H63.3123V25.165H78.2185V27.5791ZM66.2888 26.4072H63.3123V21.0283H66.2888V26.4072ZM62.8201 17.1963C65.2263 17.1963 67.1521 17.1494 68.5974 17.0557C70.0427 16.9619 71.4724 16.7822 72.8865 16.5166L73.1912 18.9189C71.7302 19.1924 70.238 19.3799 68.7146 19.4814C67.199 19.5752 65.2341 19.6221 62.8201 19.6221H60.9451V17.1963H62.8201ZM70.8005 14.8174H63.8865V17.8994H60.9451V12.6025H67.8474V10.3877H60.9216V8.03223H70.8005V14.8174ZM97.8579 21.9658H94.8696V6.6377H97.8579V21.9658ZM98.4439 27.5791H83.5728V25.165H98.4439V27.5791ZM86.5962 26.1494H83.5728V20.4307H86.5962V26.1494ZM86.1743 7.98535C87.2603 7.98535 88.2485 8.21582 89.1392 8.67676C90.0376 9.12988 90.7407 9.77051 91.2485 10.5986C91.7564 11.4189 92.0103 12.3369 92.0103 13.3525C92.0103 14.3994 91.7564 15.333 91.2485 16.1533C90.7407 16.9736 90.0376 17.6182 89.1392 18.0869C88.2485 18.5479 87.2603 18.7783 86.1743 18.7783C85.0884 18.7783 84.1001 18.5479 83.2095 18.0869C82.3267 17.6182 81.6274 16.9736 81.1118 16.1533C80.5962 15.333 80.3384 14.3994 80.3384 13.3525C80.3384 12.3369 80.5962 11.4189 81.1118 10.5986C81.6274 9.77051 82.3267 9.12988 83.2095 8.67676C84.1001 8.21582 85.0884 7.98535 86.1743 7.98535ZM86.1743 10.5869C85.6196 10.5791 85.1196 10.6885 84.6743 10.915C84.2368 11.1338 83.8892 11.4541 83.6314 11.876C83.3814 12.2979 83.2564 12.79 83.2564 13.3525C83.2564 13.9307 83.3814 14.4346 83.6314 14.8643C83.8892 15.2861 84.2368 15.6104 84.6743 15.8369C85.1196 16.0557 85.6196 16.165 86.1743 16.165C86.7212 16.165 87.2095 16.0557 87.6392 15.8369C88.0767 15.6104 88.4204 15.2861 88.6704 14.8643C88.9204 14.4346 89.0454 13.9307 89.0454 13.3525C89.0454 12.79 88.9204 12.2979 88.6704 11.876C88.4204 11.4541 88.0767 11.1338 87.6392 10.915C87.2095 10.6885 86.7212 10.5791 86.1743 10.5869ZM118.2 28.001H115.236V6.59082H118.2V28.001ZM115.599 16.54H111.486V14.1377H115.599V16.54ZM102.872 20.7236C104.818 20.7314 106.49 20.6963 107.888 20.6182C109.294 20.54 110.712 20.3916 112.142 20.1729L112.447 22.5752C110.97 22.7939 109.493 22.9463 108.017 23.0322C106.548 23.1182 104.833 23.1611 102.872 23.1611H101.173V20.7236H102.872ZM111.157 10.8096H104.161V21.4854H101.173V8.39551H111.157V10.8096ZM110.372 16.7041H103.493V14.3486H110.372V16.7041ZM132.906 13.5166H127.809V11.1494H132.906V13.5166ZM124.363 17.2783H121.41V8.46582H124.363V17.2783ZM122.863 16.2822C124.254 16.2822 125.508 16.2354 126.625 16.1416C127.75 16.04 128.871 15.8604 129.988 15.6025L130.258 17.9814C129.055 18.2549 127.867 18.4502 126.695 18.5674C125.531 18.6846 124.254 18.7432 122.863 18.7432H121.41V16.2822H122.863ZM138.836 20.9932H135.988V6.6377H138.836V20.9932ZM134.453 19.1182H131.641V6.98926H134.453V19.1182ZM132.426 20.5244C132.426 21.7588 132.098 22.8838 131.441 23.8994C130.785 24.915 129.832 25.7666 128.582 26.4541C127.34 27.1416 125.852 27.6064 124.117 27.8486L123.004 25.54C124.48 25.3525 125.734 25.0088 126.766 24.5088C127.805 24.001 128.586 23.3994 129.109 22.7041C129.641 22.0088 129.906 21.2822 129.906 20.5244V19.9385H132.426V20.5244ZM132.859 20.5244C132.859 21.2822 133.117 22.0088 133.633 22.7041C134.156 23.3994 134.941 24.001 135.988 24.5088C137.035 25.0088 138.293 25.3525 139.762 25.54L138.66 27.8486C136.926 27.6064 135.43 27.1416 134.172 26.4541C132.922 25.7666 131.965 24.915 131.301 23.8994C130.645 22.8838 130.316 21.7588 130.316 20.5244V19.9385H132.859V20.5244ZM156.249 10.8213H142.585V8.4541H156.249V10.8213ZM160.046 25.3291H140.593V22.9033H160.046V25.3291ZM150.518 24.1455H147.553V15.5674H150.518V24.1455ZM158.147 10.4814C158.147 11.7314 158.132 12.7979 158.1 13.6807C158.069 14.5557 157.995 15.5947 157.878 16.7979C157.761 17.9932 157.573 19.29 157.315 20.6885L154.28 20.3721C154.553 19.0674 154.753 17.8369 154.878 16.6807C155.003 15.5166 155.077 14.4893 155.1 13.5986C155.132 12.7002 155.147 11.6611 155.147 10.4814V8.4541H158.147V10.4814ZM180.271 18.8018H160.783V16.3643H180.271V18.8018ZM178.044 14.876H163.138V12.4854H178.044V14.876ZM177.927 9.5791H166.103V13.6924H163.138V7.18848H177.927V9.5791ZM170.474 20.0791C172.021 20.0791 173.349 20.2314 174.459 20.5361C175.576 20.8408 176.427 21.2861 177.013 21.8721C177.607 22.458 177.904 23.165 177.904 23.9932C177.904 24.8291 177.607 25.5439 177.013 26.1377C176.427 26.7314 175.576 27.1807 174.459 27.4854C173.349 27.79 172.021 27.9424 170.474 27.9424C168.927 27.9424 167.591 27.79 166.466 27.4854C165.349 27.1807 164.49 26.7314 163.888 26.1377C163.294 25.5439 162.998 24.8291 162.998 23.9932C162.998 23.165 163.294 22.458 163.888 21.8721C164.49 21.2861 165.349 20.8408 166.466 20.5361C167.584 20.2314 168.919 20.0791 170.474 20.0791ZM170.474 22.3525C169.49 22.3525 168.669 22.415 168.013 22.54C167.357 22.665 166.865 22.8486 166.537 23.0908C166.209 23.333 166.044 23.6338 166.044 23.9932C166.044 24.3682 166.209 24.6807 166.537 24.9307C166.865 25.1807 167.353 25.3682 168.001 25.4932C168.658 25.6104 169.482 25.6689 170.474 25.6689C171.459 25.6689 172.275 25.6104 172.923 25.4932C173.58 25.3682 174.072 25.1807 174.4 24.9307C174.728 24.6807 174.892 24.3682 174.892 23.9932C174.892 23.6338 174.728 23.333 174.4 23.0908C174.072 22.8486 173.576 22.665 172.912 22.54C172.255 22.415 171.443 22.3525 170.474 22.3525ZM193.617 10.8799H180.949V8.52441H193.617V10.8799ZM187.301 11.5596C188.324 11.5596 189.231 11.7236 190.02 12.0518C190.817 12.3799 191.438 12.8408 191.883 13.4346C192.328 14.0283 192.551 14.7119 192.551 15.4854C192.551 16.2666 192.328 16.9541 191.883 17.5479C191.438 18.1416 190.817 18.6025 190.02 18.9307C189.231 19.2588 188.324 19.4229 187.301 19.4229C186.278 19.4229 185.364 19.2588 184.559 18.9307C183.754 18.6025 183.125 18.1416 182.672 17.5479C182.227 16.9463 182.004 16.2588 182.004 15.4854C182.004 14.7119 182.227 14.0283 182.672 13.4346C183.125 12.8408 183.754 12.3799 184.559 12.0518C185.364 11.7236 186.278 11.5596 187.301 11.5596ZM187.301 13.7979C186.824 13.7979 186.403 13.8643 186.035 13.9971C185.676 14.1221 185.399 14.3135 185.203 14.5713C185.008 14.8213 184.91 15.126 184.91 15.4854C184.91 15.8447 185.008 16.1494 185.203 16.3994C185.399 16.6416 185.676 16.8252 186.035 16.9502C186.395 17.0752 186.817 17.1377 187.301 17.1377C187.778 17.1377 188.196 17.0752 188.555 16.9502C188.922 16.8252 189.207 16.6416 189.41 16.3994C189.614 16.1494 189.715 15.8447 189.715 15.4854C189.715 15.126 189.614 14.8213 189.41 14.5713C189.207 14.3135 188.922 14.1221 188.555 13.9971C188.196 13.8643 187.778 13.7979 187.301 13.7979ZM197.883 19.9971H194.895V6.59082H197.883V19.9971ZM200.766 14.583H197.039V12.1455H200.766V14.583ZM197.883 27.9424H194.895V23.2666H183.528V20.8877H197.883V27.9424ZM188.789 9.84863H185.801V6.49707H188.789V9.84863ZM216.679 10.8213H203.073V8.4541H216.679V10.8213ZM220.616 25.3291H201.163V22.9033H220.616V25.3291ZM208.276 23.7002H205.288V16.2002H208.276V23.7002ZM218.835 10.54C218.835 11.7275 218.823 12.7588 218.8 13.6338C218.776 14.5088 218.706 15.5205 218.589 16.6689C218.472 17.8096 218.292 19.0479 218.05 20.3838L215.108 20.1025C215.343 18.8447 215.511 17.6611 215.612 16.5518C215.722 15.4346 215.788 14.4424 215.812 13.5752C215.835 12.708 215.847 11.6963 215.847 10.54V8.4541H218.835V10.54ZM213.573 23.7002H210.632V16.2002H213.573V23.7002Z" fill="#121217"/>
</svg>
