<svg width="182" height="24" viewBox="0 0 182 24" fill="none" xmlns="http://www.w3.org/2000/svg">
<g clip-path="url(#clip0_748_462)">
<path d="M8.6321 11.5111C8.6321 11.5111 2.98235 12.2249 3.04129 9.04812C3.11064 5.30042 7.12282 2.39901 10.2761 1.59952C10.2761 1.59952 6.73597 2.25763 4.33708 3.87336C1.93819 5.48908 0.00292969 7.74026 0.00292969 9.64515C0.00292969 11.55 1.958 12.4732 2.84762 12.6269C3.73723 12.7805 5.59473 12.8771 8.6321 11.5111Z" fill="white"/>
<path d="M0.533203 21.9007C0.533203 21.9007 5.42807 20.1485 9.31592 16.6481C13.2038 13.1477 13.8997 7.74977 5.89814 9.29801C5.89814 9.29801 9.17129 7.94779 11.535 7.94779C13.8987 7.94779 16.6255 8.39113 16.6255 11.1162C16.6275 14.82 9.56359 21.512 0.533203 21.9007Z" fill="white"/>
<path d="M14.8773 3.0829C15.3989 3.9814 14.9872 5.18876 13.9579 5.77938C12.9286 6.37001 11.672 6.12125 11.1504 5.22275C10.6288 4.32425 11.0593 3.1489 12.0692 2.52626C12.948 1.9844 14.3557 2.18439 14.8773 3.0829Z" fill="white"/>
</g>
<path d="M35.9211 6.15288C35.9114 8.45987 37.2968 10.7092 40 11.632L38.8264 13.3046C36.9504 12.6028 35.6132 11.2475 34.8724 9.53647C34.1317 11.4493 32.7079 12.9489 30.6684 13.7083L29.5332 12.0165C32.3327 11.0745 33.7565 8.67135 33.7661 6.13366V4.15349H35.9211V6.15288ZM32.6886 20.1102V14.5926H34.8628V18.3799H44.5408V20.1102H32.6886ZM38.557 8.67135V6.92188H42.0203V3.09612H44.156V15.996H42.0203V8.67135H38.557Z" fill="white"/>
<path d="M61.0684 3.09612V15.8807H58.952V3.09612H61.0684ZM47.5039 5.97986V4.26884H55.5272V9.63259H49.6396V11.8242C52.7854 11.8242 54.8634 11.7281 57.2588 11.2859L57.4897 12.997C54.8634 13.4872 52.5834 13.5737 49.0239 13.5737H47.5423V8.0177H53.4107V5.97986H47.5039ZM49.4856 20.1102V14.8425H51.6406V18.3799H61.5494V20.1102H49.4856Z" fill="white"/>
<path d="M78.1348 3.09612V15.65H75.9798V3.09612H78.1348ZM63.9545 8.57522C63.9545 6.04715 66.0036 4.24001 68.6492 4.23039C71.2948 4.24001 73.3343 6.04715 73.3246 8.57522C73.3343 11.1417 71.2948 12.9393 68.6492 12.9393C66.0036 12.9393 63.9545 11.1417 63.9545 8.57522ZM66.0517 8.57522C66.0421 10.1132 67.158 11.0745 68.6492 11.0745C70.1018 11.0745 71.2274 10.1132 71.2274 8.57522C71.2274 7.07568 70.1018 6.09521 68.6492 6.09521C67.158 6.09521 66.0421 7.07568 66.0517 8.57522ZM66.6289 20.1102V14.3811H68.7839V18.3799H78.6158V20.1102H66.6289Z" fill="white"/>
<path d="M95.2588 3.0769V20.4754H93.1424V11.0937H89.8715V9.36344H93.1424V3.0769H95.2588ZM81.4634 16.4767V4.57644H89.6021V6.32591H83.6183V9.44034H88.9095V11.1321H83.6183V14.708C86.2639 14.6984 88.2457 14.6022 90.4872 14.2466L90.6988 15.9768C88.1687 16.3613 85.9368 16.4574 82.8295 16.4767H81.4634Z" fill="white"/>
<path d="M100.685 4.61489V11.0841C102.31 11.0552 103.898 10.9303 105.629 10.5362L105.841 12.2664C103.677 12.747 101.791 12.872 99.7226 12.8624H98.5682V4.61489H100.685ZM99.8766 18.7067C103.369 18.2646 105.601 16.4286 105.61 14.458V13.939H107.707V14.458C107.707 16.4286 109.939 18.2646 113.46 18.7067L112.652 20.3601C109.901 19.966 107.736 18.7548 106.659 17.0534C105.581 18.7548 103.426 19.966 100.665 20.3601L99.8766 18.7067ZM103.763 8.57522V6.86421H107.092V3.42295H109.112V13.2661H107.092V8.57522H103.763ZM110.613 14.8041V3.09612H112.652V14.8041H110.613Z" fill="white"/>
<path d="M128.93 4.67257V6.34513C128.911 8.50794 128.911 10.9207 128.237 14.5542L126.082 14.3235C126.765 10.9399 126.765 8.46949 126.775 6.38358H116.385V4.67257H128.93ZM114.73 18.2069V16.4574H120.579V10.4208H122.696V16.4574H130.584V18.2069H114.73Z" fill="white"/>
<path d="M147.632 11.1321V12.8816H131.758V11.1321H147.632ZM133.605 17.2457C133.605 15.227 135.885 14.0832 139.666 14.0928C143.418 14.0832 145.679 15.227 145.688 17.2457C145.679 19.2931 143.418 20.437 139.666 20.437C135.885 20.437 133.605 19.2931 133.605 17.2457ZM133.701 9.76717V3.63442H145.707V5.36466H135.837V8.05615H145.804V9.76717H133.701ZM135.779 17.2457C135.77 18.2742 137.136 18.7836 139.666 18.7836C142.158 18.7836 143.533 18.2742 143.553 17.2457C143.533 16.2652 142.158 15.7269 139.666 15.7269C137.136 15.7269 135.77 16.2652 135.779 17.2457Z" fill="white"/>
<path d="M159.118 4.74947V6.44126H148.805V4.74947H152.903V3H155.039V4.74947H159.118ZM149.69 10.2862C149.69 8.38297 151.451 7.11413 153.962 7.11413C156.473 7.11413 158.204 8.38297 158.214 10.2862C158.204 12.1895 156.473 13.4584 153.962 13.4584C151.451 13.4584 149.69 12.1895 149.69 10.2862ZM150.922 16.4767V14.7656H162.504V20.4562H160.369V16.4767H150.922ZM151.768 10.2862C151.759 11.2667 152.644 11.8146 153.962 11.805C155.28 11.8146 156.174 11.2667 156.174 10.2862C156.174 9.30577 155.28 8.72902 153.962 8.72902C152.644 8.72902 151.759 9.30577 151.768 10.2862ZM160.369 13.9582V3.0769H162.504V7.69088H164.929V9.44034H162.504V13.9582H160.369Z" fill="white"/>
<path d="M180.071 4.67257V6.44126C180.071 8.60406 180.071 10.9303 179.436 14.3427L177.339 14.1312C177.935 10.911 177.935 8.54639 177.935 6.44126V6.38358H167.411V4.67257H180.071ZM165.814 18.2069V16.4574H169.373V10.9207H171.509V16.4574H173.722V10.9207H175.819V16.4574H181.668V18.2069H165.814Z" fill="white"/>
<defs>
<clipPath id="clip0_748_462">
<rect width="16.6238" height="20.3015" fill="white" transform="translate(0.000976562 1.59941)"/>
</clipPath>
</defs>
</svg>
