<svg width="149" height="157" viewBox="0 0 149 157" fill="none" xmlns="http://www.w3.org/2000/svg">
<path fill-rule="evenodd" clip-rule="evenodd" d="M59.2429 51.0742C65.1806 53.5182 69.882 56.0184 70.5006 56.8111L70.8128 57.2599C71.3884 58.162 72.0572 59.5754 72.266 60.3061C72.3212 60.4985 72.3831 61.0133 72.4686 61.7169L72.4712 61.7395C72.7705 64.2182 73.3487 69.0002 74.85 70.388C76.3329 71.7579 79.7469 72.6273 81.3889 72.4528C84.0839 72.4687 85.9393 70.7815 87.1224 69.0954C88.0199 67.8171 88.66 66.3659 89.1072 65.1854C96.2514 69.0391 102.287 70.0784 106.894 70.8716L107.063 70.9003L107.842 71.0353C111.113 71.6049 116.704 71.7773 119.563 71.5327C124.623 71.0988 128.064 69.537 130.378 67.5644C132.684 65.5973 133.747 63.3273 134.236 61.6827C135.164 58.552 135.486 54.9474 133.984 51.6468C129.796 42.4331 120.145 28.3486 99.3855 23.7922C99.9729 15.9056 99.2689 10.0976 97.3198 6.16935C96.297 4.10799 94.918 2.53809 93.1936 1.49449C91.4728 0.453025 89.5145 0 87.4314 0C85.2041 0 82.8697 0.805706 80.6899 2.04689C78.4937 3.29753 76.3503 5.04858 74.4785 7.08799C70.7805 11.1175 67.8982 16.5554 68.0967 21.847C68.1289 22.7138 68.2533 23.5359 68.4544 24.3132C62.2123 25.247 55.636 28.1334 50.0668 31.1786C43.9936 34.4995 38.9469 38.1055 36.5655 39.8885C34.8164 41.2043 35.4507 43.9483 37.5692 44.3923C45.8085 46.1124 53.3728 48.6579 59.2429 51.0742ZM112.4 44.7643C109.072 44.7643 106.55 47.4798 106.55 50.6106C106.55 53.7428 109.073 56.4544 112.4 56.4544C115.726 56.4544 118.251 53.7428 118.251 50.6106C118.251 47.4766 115.727 44.7643 112.4 44.7643ZM93.407 71.9416C92.645 71.3148 91.9757 70.7636 91.4426 70.2836C91.0281 69.9126 90.4371 69.9945 90.1378 70.4653C88.2803 73.4026 85.7935 75.649 81.2037 75.5799C70.5523 75.4249 69.8109 68.2429 69.3125 63.4138C69.1462 61.7978 69.0065 60.4438 68.5317 59.7064C65.7839 55.4463 43.6507 47.415 27.5556 45.3016C22.3465 44.6159 14.8272 45.7494 9.93549 48.6021C0.684137 53.9982 -2.20691 66.8653 1.67937 75.9279C7.38983 89.2351 64.0672 111.249 70.2714 111.945C73.5007 112.309 75.2297 111.188 77.1986 109.913C79.0177 108.734 81.042 107.423 84.6422 107.025C92.1334 106.196 95.4005 113.209 95.4005 113.209C95.4005 113.209 95.531 114.604 96.603 114.077C99.2382 112.782 105.445 109.154 107.333 99.229C109.355 85.0708 98.9486 76.5036 93.407 71.9416ZM138.745 70.9018C139.069 68.9777 136.42 67.9395 135.428 69.7463L121.416 95.1557C120.741 96.3685 121.647 97.7988 122.973 97.7988H135.4L130.4 113.892L130.398 113.899C129.788 115.895 132.504 117.123 133.609 115.372L133.614 115.365L148.724 91.1326L148.729 91.1244C149.47 89.9209 148.58 88.3724 147.164 88.4092L135.626 88.7219L138.743 70.9115L138.745 70.9018ZM16.2758 92.1391C15.5741 91.6699 14.789 91.8152 14.2946 92.1468C13.8219 92.4641 13.4631 93.0331 13.4794 93.7158C13.6761 101.956 18.8586 116.842 29.3874 130.028C39.9641 143.273 56.0812 154.986 78.287 156.548C95.927 157.79 108.696 151.47 117.345 144.04C125.953 136.645 130.488 128.15 131.783 124.891C132.524 123.023 130.1 121.461 128.728 123.012C112.368 141.505 96.2146 147.358 82.4578 146.505C70.1655 145.743 59.5454 139.613 52.1622 131.885C67.5241 134.952 79.5023 129.366 84.1361 126.35C87.0763 124.436 89.8174 122.163 91.2451 119.765C91.9717 118.545 92.4296 117.172 92.2684 115.737C92.1037 114.267 91.3177 112.976 90.0252 111.899C88.7797 110.862 87.5328 110.252 86.2305 110.072C84.9303 109.892 83.7381 110.164 82.6461 110.607C81.5798 111.039 80.519 111.674 79.4977 112.291L79.3385 112.387C78.3382 112.991 77.3245 113.603 76.1963 114.152C73.517 115.454 70.6818 115.195 67.3189 114.395C60.8978 112.865 49.5121 108.223 38.9453 103.448C28.372 98.6697 18.8989 93.8862 16.2758 92.1391ZM109.773 50.6106C109.773 48.9823 111.048 47.8345 112.4 47.8345C113.752 47.8345 115.027 48.9808 115.027 50.6106C115.027 52.2374 113.753 53.3841 112.4 53.3841C111.047 53.3841 109.773 52.2374 109.773 50.6106Z" fill="#82DCE1"/>
</svg>
