<svg width="149" height="149" viewBox="0 0 149 149" fill="none" xmlns="http://www.w3.org/2000/svg">
<g clip-path="url(#clip0_236_1951)">
<mask id="mask0_236_1951" style="mask-type:luminance" maskUnits="userSpaceOnUse" x="-1" y="0" width="150" height="149">
<path d="M148.998 0H-0.00195312V149H148.998V0Z" fill="white"/>
</mask>
<g mask="url(#mask0_236_1951)">
<path d="M68.3149 73.7397C69.7087 74.5169 71.4505 73.5452 71.4505 71.9902V2.02281C71.4505 0.467978 69.7087 -0.5038 68.3149 0.273607L5.59823 35.2575C4.20457 36.0348 4.20455 37.9783 5.59823 38.7558L68.3149 73.7397Z" fill="#6B35E9"/>
<path d="M76.5186 1.77159C76.5186 0.409854 78.0465 -0.441232 79.2682 0.239629L142.501 35.4746C143.722 36.1554 143.722 37.8577 142.501 38.5386L79.2682 73.7735C78.0465 74.454 76.5186 73.6028 76.5186 72.2417V1.77159Z" fill="#BCA3F5"/>
<path d="M-0.00195312 44.1771C-0.00195312 42.6535 1.70808 41.7011 3.07608 42.4629L95.4169 93.8833C96.7854 94.6453 96.7854 96.5495 95.4169 97.3114L3.07608 148.732C1.70808 149.494 -0.00195312 148.542 -0.00195312 147.018V44.1771Z" fill="#5318DC"/>
<path d="M145.158 116.181C146.864 117.131 148.998 115.943 148.998 114.042V44.5411C148.998 42.6396 146.864 41.4513 145.158 42.402L82.7518 77.1528C81.0446 78.1034 81.0446 80.48 82.7518 81.4305L145.158 116.181Z" fill="#875AED"/>
</g>
</g>
<defs>
<clipPath id="clip0_236_1951">
<rect width="149" height="149" fill="white" transform="translate(-0.00195312)"/>
</clipPath>
</defs>
</svg>
