<svg width="149" height="149" viewBox="0 0 149 149" fill="none" xmlns="http://www.w3.org/2000/svg">
<g clip-path="url(#clip0_240_1156)">
<mask id="mask0_240_1156" style="mask-type:luminance" maskUnits="userSpaceOnUse" x="0" y="0" width="149" height="149">
<path d="M149 0H0V149H149V0Z" fill="white"/>
</mask>
<g mask="url(#mask0_240_1156)">
<path d="M122.452 110.451H142.607C146.141 110.451 149 107.591 149 104.058V83.3949C149 79.8616 146.141 77.002 142.607 77.002H122.452C118.919 77.002 116.06 79.8616 116.06 83.3949V104.058C116.074 107.591 118.933 110.451 122.452 110.451Z" fill="#B9292E"/>
<path d="M83.7245 110.451H103.879C107.412 110.451 110.272 107.591 110.272 104.058V83.3949C110.272 79.8616 107.412 77.002 103.879 77.002H83.7245C80.1914 77.002 77.3318 79.8616 77.3318 83.3949V104.058C77.3455 107.591 80.2051 110.451 83.7245 110.451Z" fill="#666767"/>
<path d="M44.9694 110.451H65.1237C68.6571 110.451 71.5164 107.591 71.5164 104.058V83.3949C71.5164 79.8616 68.6571 77.002 65.1237 77.002H44.9694C41.4363 77.002 38.5767 79.8616 38.5767 83.3949V104.058C38.5904 107.591 41.45 110.451 44.9694 110.451Z" fill="#999999"/>
<path d="M44.9694 149H65.1237C68.6571 149 71.5164 146.141 71.5164 142.607V121.944C71.5164 118.411 68.6571 115.552 65.1237 115.552H44.9694C41.4363 115.552 38.5767 118.411 38.5767 121.944V142.607C38.5904 146.141 41.45 149 44.9694 149Z" fill="#4E4D4D"/>
<path d="M83.7245 71.9018H103.879C107.412 71.9018 110.272 69.0419 110.272 65.5091V44.8458C110.272 41.3127 107.412 38.4531 103.879 38.4531H83.7245C80.1914 38.4531 77.3318 41.3127 77.3318 44.8458V65.5091C77.3455 69.0419 80.2051 71.9018 83.7245 71.9018Z" fill="#DC2728"/>
<path d="M44.9694 71.9018H65.1237C68.6571 71.9018 71.5164 69.0419 71.5164 65.5091V44.8458C71.5164 41.3127 68.6571 38.4531 65.1237 38.4531H44.9694C41.4363 38.4531 38.5767 41.3127 38.5767 44.8458V65.5091C38.5904 69.0419 41.45 71.9018 44.9694 71.9018Z" fill="#E6572A"/>
<path d="M83.7245 33.435H103.879C107.412 33.435 110.272 30.5754 110.272 27.0422V6.39279C110.272 2.85957 107.412 0 103.879 0H83.7245C80.1914 0 77.3318 2.85957 77.3318 6.39279V27.0559C77.3455 30.5754 80.2051 33.435 83.7245 33.435Z" fill="#B82A2D"/>
<path d="M6.39278 71.9018H26.5335C30.0667 71.9018 32.9263 69.0419 32.9263 65.5091V44.8458C32.9263 41.3127 30.0667 38.4531 26.5335 38.4531H6.39278C2.85957 38.4668 0 41.3264 0 44.8458V65.5091C0 69.0419 2.85957 71.9018 6.39278 71.9018Z" fill="#7F8080"/>
</g>
</g>
<defs>
<clipPath id="clip0_240_1156">
<rect width="149" height="149" fill="white"/>
</clipPath>
</defs>
</svg>
